<mxfile host="app.diagrams.net" modified="2023-11-06T08:02:44.890Z" agent="Mozilla/5.0 (Windows NT 10.0; Win64; x64) AppleWebKit/537.36 (KHTML, like Gecko) Chrome/105.0.0.0 Safari/537.36 Edg/105.0.1343.50" etag="ypLPgOC8BfB3F2ThZ54u" version="21.8.0" type="github">
  <diagram name="第 1 页" id="HQzfVTrx2GlR01jELWeK">
    <mxGraphModel dx="512" dy="277" grid="1" gridSize="10" guides="1" tooltips="1" connect="1" arrows="1" fold="1" page="1" pageScale="1" pageWidth="827" pageHeight="1169" math="0" shadow="0">
      <root>
        <mxCell id="0" />
        <mxCell id="1" parent="0" />
        <mxCell id="lOq_GecW-tjW8hOBr35m-38" value="" style="rounded=1;whiteSpace=wrap;html=1;fillColor=#eff1f3;strokeColor=none;shadow=0;glass=0;comic=0;gradientColor=none;fontFamily=Courier New;fontColor=#FFFFFF;" vertex="1" parent="1">
          <mxGeometry x="120" y="70" width="390" height="250" as="geometry" />
        </mxCell>
        <mxCell id="lOq_GecW-tjW8hOBr35m-39" value="&lt;font color=&quot;#ffffff&quot; face=&quot;Courier New&quot;&gt;APP&lt;/font&gt;" style="rounded=1;whiteSpace=wrap;html=1;fillColor=#79d9ce;strokeColor=none;shadow=1;glass=0;comic=0;gradientColor=none;" vertex="1" parent="1">
          <mxGeometry x="160" y="220" width="90" height="30" as="geometry" />
        </mxCell>
        <mxCell id="lOq_GecW-tjW8hOBr35m-44" value="扫地机" style="rounded=1;whiteSpace=wrap;html=1;fillColor=#77aac2;strokeColor=none;shadow=1;glass=0;comic=0;gradientColor=none;fontFamily=Courier New;fontColor=#FFFFFF;" vertex="1" parent="1">
          <mxGeometry x="380" y="220" width="90" height="30" as="geometry" />
        </mxCell>
        <mxCell id="lOq_GecW-tjW8hOBr35m-49" value="color1&lt;br&gt;#77AAC2" style="rounded=1;whiteSpace=wrap;html=1;fillColor=#77aac2;strokeColor=none;shadow=1;glass=0;comic=0;gradientColor=none;fontFamily=Courier New;fontColor=#FFFFFF;" vertex="1" parent="1">
          <mxGeometry x="530" y="60" width="90" height="30" as="geometry" />
        </mxCell>
        <mxCell id="lOq_GecW-tjW8hOBr35m-50" value="color2&lt;br&gt;#79D9CE" style="rounded=1;whiteSpace=wrap;html=1;fillColor=#79d9ce;strokeColor=none;shadow=1;glass=0;comic=0;gradientColor=none;fontFamily=Courier New;fontColor=#FFFFFF;" vertex="1" parent="1">
          <mxGeometry x="530" y="110" width="90" height="30" as="geometry" />
        </mxCell>
        <mxCell id="lOq_GecW-tjW8hOBr35m-51" value="color3&lt;br&gt;#FCD765" style="rounded=1;whiteSpace=wrap;html=1;fillColor=#fcd765;strokeColor=none;shadow=1;glass=0;comic=0;gradientColor=none;fontFamily=Courier New;fontColor=#FFFFFF;" vertex="1" parent="1">
          <mxGeometry x="530" y="160" width="90" height="30" as="geometry" />
        </mxCell>
        <mxCell id="lOq_GecW-tjW8hOBr35m-52" value="line&lt;br&gt;#696773" style="rounded=1;whiteSpace=wrap;html=1;fillColor=#696773;strokeColor=none;shadow=1;glass=0;comic=0;gradientColor=none;fontFamily=Courier New;fontColor=#FFFFFF;" vertex="1" parent="1">
          <mxGeometry x="530" y="260" width="90" height="30" as="geometry" />
        </mxCell>
        <mxCell id="lOq_GecW-tjW8hOBr35m-53" value="color4&lt;br&gt;#F19A97" style="rounded=1;whiteSpace=wrap;html=1;fillColor=#f19a97;strokeColor=none;shadow=1;glass=0;comic=0;gradientColor=none;fontFamily=Courier New;fontColor=#FFFFFF;" vertex="1" parent="1">
          <mxGeometry x="530" y="210" width="90" height="30" as="geometry" />
        </mxCell>
        <mxCell id="lOq_GecW-tjW8hOBr35m-54" value="background&lt;br&gt;#EFF1F3" style="rounded=1;whiteSpace=wrap;html=1;fillColor=#eff1f3;strokeColor=none;shadow=1;glass=0;comic=0;gradientColor=none;fontFamily=Courier New;fontColor=#FFFFFF;" vertex="1" parent="1">
          <mxGeometry x="530" y="310" width="90" height="30" as="geometry" />
        </mxCell>
        <mxCell id="lOq_GecW-tjW8hOBr35m-55" value="&lt;font face=&quot;Comic Sans MS&quot; style=&quot;font-size: 17px&quot;&gt;&lt;font color=&quot;#696773&quot; style=&quot;font-size: 17px&quot;&gt;Title Font&lt;br&gt;Comic Sans MS&lt;/font&gt;&lt;br&gt;&lt;/font&gt;" style="text;html=1;strokeColor=none;fillColor=none;align=center;verticalAlign=middle;whiteSpace=wrap;rounded=0;" vertex="1" parent="1">
          <mxGeometry x="260" y="30" width="150" height="20" as="geometry" />
        </mxCell>
        <mxCell id="lOq_GecW-tjW8hOBr35m-74" value="阿里云" style="ellipse;shape=cloud;whiteSpace=wrap;html=1;fillColor=#f19a97;shadow=1;strokeColor=none;fontFamily=Courier New;fontColor=#FFFFFF;rounded=1;glass=0;comic=0;gradientColor=none;" vertex="1" parent="1">
          <mxGeometry x="265" y="115" width="100" height="45" as="geometry" />
        </mxCell>
        <mxCell id="lOq_GecW-tjW8hOBr35m-75" value="" style="rounded=1;whiteSpace=wrap;html=1;fillColor=#eff1f3;strokeColor=none;shadow=0;glass=0;comic=0;gradientColor=none;fontFamily=Courier New;fontColor=#FFFFFF;" vertex="1" parent="1">
          <mxGeometry x="130" y="410" width="390" height="250" as="geometry" />
        </mxCell>
        <mxCell id="lOq_GecW-tjW8hOBr35m-76" value="&lt;font color=&quot;#ffffff&quot; face=&quot;Courier New&quot;&gt;animals&lt;/font&gt;" style="rounded=1;whiteSpace=wrap;html=1;fillColor=#79d9ce;strokeColor=none;shadow=1;glass=0;comic=0;gradientColor=none;" vertex="1" parent="1">
          <mxGeometry x="140" y="530" width="90" height="30" as="geometry" />
        </mxCell>
        <mxCell id="lOq_GecW-tjW8hOBr35m-77" value="" style="endArrow=classic;html=1;exitX=1;exitY=0.5;exitDx=0;exitDy=0;strokeWidth=2;dashed=1;strokeColor=#696773;entryX=0;entryY=0.5;entryDx=0;entryDy=0;rounded=0;" edge="1" source="lOq_GecW-tjW8hOBr35m-76" target="lOq_GecW-tjW8hOBr35m-80" parent="1">
          <mxGeometry width="50" height="50" relative="1" as="geometry">
            <mxPoint x="280" y="590" as="sourcePoint" />
            <mxPoint x="310" y="545" as="targetPoint" />
          </mxGeometry>
        </mxCell>
        <mxCell id="lOq_GecW-tjW8hOBr35m-78" value="&lt;b style=&quot;color: rgb(105 , 103 , 115)&quot;&gt;category2&lt;/b&gt;" style="edgeLabel;html=1;align=center;verticalAlign=middle;resizable=0;points=[];fontFamily=Courier New;fontColor=#FFFFFF;labelBackgroundColor=none;" vertex="1" connectable="0" parent="lOq_GecW-tjW8hOBr35m-77">
          <mxGeometry x="0.0311" y="2" relative="1" as="geometry">
            <mxPoint x="7" y="-13" as="offset" />
          </mxGeometry>
        </mxCell>
        <mxCell id="lOq_GecW-tjW8hOBr35m-79" value="cat" style="rounded=1;whiteSpace=wrap;html=1;fillColor=#f19a97;strokeColor=none;shadow=1;glass=0;comic=0;gradientColor=none;fontFamily=Courier New;fontColor=#FFFFFF;" vertex="1" parent="1">
          <mxGeometry x="410" y="480" width="90" height="30" as="geometry" />
        </mxCell>
        <mxCell id="lOq_GecW-tjW8hOBr35m-80" value="dog" style="rounded=1;whiteSpace=wrap;html=1;fillColor=#f19a97;strokeColor=none;shadow=1;glass=0;comic=0;gradientColor=none;fontFamily=Courier New;fontColor=#FFFFFF;" vertex="1" parent="1">
          <mxGeometry x="410" y="530" width="90" height="30" as="geometry" />
        </mxCell>
        <mxCell id="lOq_GecW-tjW8hOBr35m-81" value="pig" style="rounded=1;whiteSpace=wrap;html=1;fillColor=#f19a97;strokeColor=none;shadow=1;glass=0;comic=0;gradientColor=none;fontFamily=Courier New;fontColor=#FFFFFF;" vertex="1" parent="1">
          <mxGeometry x="410" y="580" width="90" height="30" as="geometry" />
        </mxCell>
        <mxCell id="lOq_GecW-tjW8hOBr35m-82" value="" style="endArrow=classic;html=1;exitX=1;exitY=0.25;exitDx=0;exitDy=0;strokeWidth=2;dashed=1;strokeColor=#696773;entryX=0;entryY=0.5;entryDx=0;entryDy=0;rounded=0;" edge="1" source="lOq_GecW-tjW8hOBr35m-76" target="lOq_GecW-tjW8hOBr35m-79" parent="1">
          <mxGeometry width="50" height="50" relative="1" as="geometry">
            <mxPoint x="280" y="590" as="sourcePoint" />
            <mxPoint x="310" y="545" as="targetPoint" />
            <Array as="points">
              <mxPoint x="270" y="538" />
              <mxPoint x="270" y="495" />
            </Array>
          </mxGeometry>
        </mxCell>
        <mxCell id="lOq_GecW-tjW8hOBr35m-83" value="&lt;font color=&quot;#696773&quot;&gt;&lt;b&gt;category1&lt;/b&gt;&lt;/font&gt;" style="edgeLabel;html=1;align=center;verticalAlign=middle;resizable=0;points=[];fontFamily=Courier New;fontColor=#FFFFFF;labelBackgroundColor=none;" vertex="1" connectable="0" parent="lOq_GecW-tjW8hOBr35m-82">
          <mxGeometry x="0.2736" y="1" relative="1" as="geometry">
            <mxPoint y="-14" as="offset" />
          </mxGeometry>
        </mxCell>
        <mxCell id="lOq_GecW-tjW8hOBr35m-84" value="" style="endArrow=classic;html=1;exitX=1;exitY=0.75;exitDx=0;exitDy=0;strokeWidth=2;dashed=1;strokeColor=#696773;entryX=0;entryY=0.5;entryDx=0;entryDy=0;rounded=0;" edge="1" source="lOq_GecW-tjW8hOBr35m-76" target="lOq_GecW-tjW8hOBr35m-81" parent="1">
          <mxGeometry width="50" height="50" relative="1" as="geometry">
            <mxPoint x="280" y="590" as="sourcePoint" />
            <mxPoint x="310" y="545" as="targetPoint" />
            <Array as="points">
              <mxPoint x="270" y="553" />
              <mxPoint x="270" y="595" />
            </Array>
          </mxGeometry>
        </mxCell>
        <mxCell id="lOq_GecW-tjW8hOBr35m-85" value="&lt;b style=&quot;color: rgb(105 , 103 , 115)&quot;&gt;category3&lt;/b&gt;" style="edgeLabel;html=1;align=center;verticalAlign=middle;resizable=0;points=[];fontFamily=Courier New;fontColor=#FFFFFF;labelBackgroundColor=none;" vertex="1" connectable="0" parent="lOq_GecW-tjW8hOBr35m-84">
          <mxGeometry x="0.1604" y="3" relative="1" as="geometry">
            <mxPoint x="13" y="-12" as="offset" />
          </mxGeometry>
        </mxCell>
        <mxCell id="lOq_GecW-tjW8hOBr35m-86" value="color1&lt;br&gt;#77AAC2" style="rounded=1;whiteSpace=wrap;html=1;fillColor=#77aac2;strokeColor=none;shadow=1;glass=0;comic=0;gradientColor=none;fontFamily=Courier New;fontColor=#FFFFFF;" vertex="1" parent="1">
          <mxGeometry x="540" y="400" width="90" height="30" as="geometry" />
        </mxCell>
        <mxCell id="lOq_GecW-tjW8hOBr35m-87" value="color2&lt;br&gt;#79D9CE" style="rounded=1;whiteSpace=wrap;html=1;fillColor=#79d9ce;strokeColor=none;shadow=1;glass=0;comic=0;gradientColor=none;fontFamily=Courier New;fontColor=#FFFFFF;" vertex="1" parent="1">
          <mxGeometry x="540" y="450" width="90" height="30" as="geometry" />
        </mxCell>
        <mxCell id="lOq_GecW-tjW8hOBr35m-88" value="color3&lt;br&gt;#FCD765" style="rounded=1;whiteSpace=wrap;html=1;fillColor=#fcd765;strokeColor=none;shadow=1;glass=0;comic=0;gradientColor=none;fontFamily=Courier New;fontColor=#FFFFFF;" vertex="1" parent="1">
          <mxGeometry x="540" y="500" width="90" height="30" as="geometry" />
        </mxCell>
        <mxCell id="lOq_GecW-tjW8hOBr35m-89" value="line&lt;br&gt;#696773" style="rounded=1;whiteSpace=wrap;html=1;fillColor=#696773;strokeColor=none;shadow=1;glass=0;comic=0;gradientColor=none;fontFamily=Courier New;fontColor=#FFFFFF;" vertex="1" parent="1">
          <mxGeometry x="540" y="600" width="90" height="30" as="geometry" />
        </mxCell>
        <mxCell id="lOq_GecW-tjW8hOBr35m-90" value="color4&lt;br&gt;#F19A97" style="rounded=1;whiteSpace=wrap;html=1;fillColor=#f19a97;strokeColor=none;shadow=1;glass=0;comic=0;gradientColor=none;fontFamily=Courier New;fontColor=#FFFFFF;" vertex="1" parent="1">
          <mxGeometry x="540" y="550" width="90" height="30" as="geometry" />
        </mxCell>
        <mxCell id="lOq_GecW-tjW8hOBr35m-91" value="background&lt;br&gt;#EFF1F3" style="rounded=1;whiteSpace=wrap;html=1;fillColor=#eff1f3;strokeColor=none;shadow=1;glass=0;comic=0;gradientColor=none;fontFamily=Courier New;fontColor=#FFFFFF;" vertex="1" parent="1">
          <mxGeometry x="540" y="650" width="90" height="30" as="geometry" />
        </mxCell>
        <mxCell id="lOq_GecW-tjW8hOBr35m-92" value="&lt;font face=&quot;Comic Sans MS&quot; style=&quot;font-size: 17px&quot;&gt;&lt;font color=&quot;#696773&quot; style=&quot;font-size: 17px&quot;&gt;Title Font&lt;br&gt;Comic Sans MS&lt;/font&gt;&lt;br&gt;&lt;/font&gt;" style="text;html=1;strokeColor=none;fillColor=none;align=center;verticalAlign=middle;whiteSpace=wrap;rounded=0;" vertex="1" parent="1">
          <mxGeometry x="270" y="430" width="150" height="20" as="geometry" />
        </mxCell>
        <mxCell id="lOq_GecW-tjW8hOBr35m-93" style="edgeStyle=orthogonalEdgeStyle;rounded=1;orthogonalLoop=1;jettySize=auto;html=1;entryX=0.407;entryY=0.946;entryDx=0;entryDy=0;entryPerimeter=0;dashed=1;strokeColor=#696773;strokeWidth=2;startArrow=classic;startFill=1;" edge="1" parent="1" source="lOq_GecW-tjW8hOBr35m-39" target="lOq_GecW-tjW8hOBr35m-74">
          <mxGeometry relative="1" as="geometry" />
        </mxCell>
        <mxCell id="lOq_GecW-tjW8hOBr35m-94" style="edgeStyle=orthogonalEdgeStyle;rounded=1;orthogonalLoop=1;jettySize=auto;html=1;entryX=0.686;entryY=0.933;entryDx=0;entryDy=0;entryPerimeter=0;strokeColor=#696773;dashed=1;strokeWidth=2;startArrow=classic;startFill=1;" edge="1" parent="1" source="lOq_GecW-tjW8hOBr35m-44" target="lOq_GecW-tjW8hOBr35m-74">
          <mxGeometry relative="1" as="geometry" />
        </mxCell>
      </root>
    </mxGraphModel>
  </diagram>
</mxfile>
